
      <svg data-logo="logo" xmlns="http://www.w3.org/2000/svg" viewBox="0 0 243 42">
        <g id="logogram" transform="translate(0, 1) rotate(0) "><path d="M16.6584 40H15.3817C12.0653 40 10.07 39.9994 8.54581 39.7159L17.3668 28.0344L16.6584 40Z" fill="#146EFF"/><path d="M31.2482 39.7514C29.7502 39.9988 27.7875 40 24.6183 40H23.109L22.397 28.0309L31.2482 39.7514Z" fill="#146EFF"/><path d="M39.6715 31.6708C39.6071 31.9773 39.5313 32.2655 39.4389 32.5426C38.8337 34.3567 37.7712 35.9522 36.3867 37.1982L26.44 26.044L39.6715 31.6708Z" fill="#146EFF"/><path d="M3.48544 37.0792C2.16397 35.8511 1.14739 34.3 0.56108 32.5426C0.459551 32.2382 0.375253 31.921 0.307173 31.5803L13.3239 26.0458L3.48544 37.0792Z" fill="#146EFF"/><path d="M40 24.6183C40 25.7428 39.9968 26.7154 39.9858 27.5692L28.1729 23.006H40V24.6183Z" fill="#146EFF"/><path d="M11.5962 23.006L0.0106534 27.4805C0.000706106 26.6481 0 25.704 0 24.6183V23.006H11.5962Z" fill="#146EFF"/><path d="M24.6183 0C28.7807 0 30.862 0.000553673 32.5426 0.56108C35.7979 1.64713 38.3529 4.20208 39.4389 7.45739C39.9994 9.13798 40 11.2193 40 15.3817V20.016H27.5089L36.5181 16.1861L33.8459 14.4123L25.1048 17.7876L29.2081 12.358L26.2571 11.5501L21.7259 16.6282L21.3885 10.9091H18.3825L18.0398 16.6282L13.5121 11.5501L10.5629 12.358L14.6609 17.7859L5.92507 14.4123L3.25284 16.1861L12.2603 20.016H0V15.3817C0 11.2193 0.000553673 9.13798 0.56108 7.45739C1.64713 4.20208 4.20208 1.64713 7.45739 0.56108C9.13798 0.000553673 11.2193 0 15.3817 0H24.6183Z" fill="#146EFF"/></g>
        <g id="logotype" transform="translate(46, 8)"><path fill="#111111" d="M20.80 26.45L20.80 26.45Q16.71 26.45 13.61 24.86Q10.52 23.27 8.84 20.33Q7.16 17.39 7.16 13.50L7.16 13.50Q7.16 11.54 7.59 9.83Q8.03 8.11 8.87 6.66Q9.71 5.21 10.90 4.07Q12.09 2.93 13.61 2.16Q15.14 1.39 16.94 0.97Q18.74 0.55 20.80 0.55L20.80 0.55Q24.52 0.55 27.33 1.66Q30.15 2.76 31.83 4.79Q33.51 6.82 33.76 9.58L33.76 9.58L27.14 9.58Q26.86 8.29 26.00 7.38Q25.15 6.47 23.87 6.00Q22.59 5.52 20.88 5.52L20.88 5.52Q19.79 5.52 18.81 5.77Q17.83 6.01 17.04 6.49Q16.26 6.96 15.64 7.64Q15.03 8.32 14.61 9.22Q14.19 10.11 13.96 11.19Q13.73 12.28 13.73 13.50L13.73 13.50Q13.73 15.99 14.61 17.76Q15.49 19.52 17.09 20.50Q18.71 21.48 20.88 21.48L20.88 21.48Q22.59 21.48 23.87 21.01Q25.15 20.54 26.02 19.61Q26.90 18.68 27.28 17.32L27.28 17.32L33.90 17.32Q33.48 20.26 31.80 22.31Q30.12 24.36 27.35 25.41Q24.59 26.45 20.80 26.45ZM42.89 26L36.87 26L36.87 1.01L42.89 1.01L42.89 26ZM52.80 26L46.74 26L46.74 8.01L52.80 8.01L52.80 26ZM52.80 5.63L46.70 5.63L46.70 1.01L52.80 1.01L52.80 5.63ZM62.49 26L56.44 26L56.44 8.01L62.49 8.01L62.49 12.38L61.86 11.72Q62.49 10.25 63.51 9.34Q64.52 8.43 65.80 7.97Q67.08 7.52 68.48 7.52L68.48 7.52Q69.95 7.52 71.14 8.01Q72.33 8.50 73.04 9.44Q73.76 10.39 73.97 11.72L73.97 11.72L73.17 11.82Q73.66 10.39 74.67 9.43Q75.69 8.46 77.02 7.99Q78.34 7.52 79.78 7.52L79.78 7.52Q81.81 7.52 83.21 8.43Q84.61 9.34 85.33 10.91Q86.05 12.49 86.05 14.69L86.05 14.69L86.05 26L80.03 26L80.03 15.64Q80.03 14.48 79.73 13.73Q79.43 12.98 78.87 12.58Q78.31 12.17 77.44 12.17L77.44 12.17Q76.49 12.17 75.77 12.66Q75.06 13.15 74.67 14.01Q74.28 14.87 74.28 16.06L74.28 16.06L74.28 26L68.27 26L68.27 15.64Q68.27 13.92 67.60 13.05Q66.94 12.17 65.67 12.17L65.67 12.17Q64.73 12.17 64.00 12.66Q63.26 13.15 62.88 14.01Q62.49 14.87 62.49 16.02L62.49 16.02L62.49 26ZM99.06 26.49L99.06 26.49Q95.88 26.49 93.53 25.27Q91.19 24.04 89.95 21.91Q88.70 19.77 88.70 17.00L88.70 17.00Q88.70 15.32 89.16 13.87Q89.61 12.42 90.49 11.26Q91.36 10.11 92.63 9.27Q93.88 8.43 95.50 7.97Q97.11 7.52 99.03 7.52L99.03 7.52Q101.27 7.52 103.14 8.13Q105.02 8.74 106.33 10.02Q107.64 11.30 108.34 13.36Q109.04 15.43 108.97 18.34L108.97 18.34L92.59 18.34L92.59 15.11L103.23 15.11Q103.06 14.13 102.70 13.49Q102.36 12.84 101.80 12.40Q101.23 11.96 100.53 11.77Q99.83 11.58 99.00 11.58L99.00 11.58Q98.08 11.58 97.35 11.82Q96.61 12.07 96.07 12.54Q95.53 13.01 95.16 13.68Q94.80 14.34 94.62 15.18Q94.44 16.02 94.44 17.00L94.44 17.00Q94.44 18.65 94.94 19.88Q95.42 21.10 96.47 21.77Q97.53 22.43 99.10 22.43L99.10 22.43Q100.47 22.43 101.41 22.01Q102.36 21.59 102.81 20.82L102.81 20.82L108.86 20.82Q108.55 22.29 107.41 23.59Q106.28 24.88 104.21 25.68Q102.14 26.49 99.06 26.49ZM124.79 26.45L124.79 26.45Q120.69 26.45 117.60 24.86Q114.50 23.27 112.82 20.33Q111.14 17.39 111.14 13.50L111.14 13.50Q111.14 11.54 111.58 9.83Q112.02 8.11 112.86 6.66Q113.69 5.21 114.89 4.07Q116.08 2.93 117.60 2.16Q119.12 1.39 120.92 0.97Q122.72 0.55 124.79 0.55L124.79 0.55Q128.50 0.55 131.32 1.66Q134.13 2.76 135.81 4.79Q137.50 6.82 137.74 9.58L137.74 9.58L131.13 9.58Q130.84 8.29 129.99 7.38Q129.13 6.47 127.85 6.00Q126.58 5.52 124.86 5.52L124.86 5.52Q123.78 5.52 122.80 5.77Q121.81 6.01 121.03 6.49Q120.24 6.96 119.63 7.64Q119.02 8.32 118.59 9.22Q118.17 10.11 117.95 11.19Q117.72 12.28 117.72 13.50L117.72 13.50Q117.72 15.99 118.59 17.76Q119.47 19.52 121.08 20.50Q122.69 21.48 124.86 21.48L124.86 21.48Q126.58 21.48 127.85 21.01Q129.13 20.54 130.00 19.61Q130.88 18.68 131.26 17.32L131.26 17.32L137.88 17.32Q137.46 20.26 135.78 22.31Q134.10 24.36 131.34 25.41Q128.57 26.45 124.79 26.45ZM146.42 26.49L146.42 26.49Q143.44 26.49 141.76 25.07Q140.09 23.66 140.09 21.27L140.09 21.27Q140.09 19.66 140.85 18.49Q141.63 17.32 143.20 16.55Q144.78 15.78 147.12 15.46L147.12 15.46L151.56 14.90Q152.34 14.76 152.72 14.40Q153.10 14.03 153.10 13.40L153.10 13.40L153.10 13.36Q153.10 12.73 152.75 12.30Q152.41 11.86 151.74 11.65Q151.07 11.44 150.09 11.44L150.09 11.44Q148.69 11.44 147.82 11.81Q146.94 12.17 146.77 13.08L146.77 13.08L140.85 13.08Q141.17 11.16 142.41 9.93Q143.66 8.71 145.65 8.11Q147.65 7.52 150.23 7.52L150.23 7.52Q153.18 7.52 155.15 8.27Q157.13 9.02 158.09 10.55Q159.06 12.07 159.06 14.41L159.06 14.41L159.06 26L153.42 26L153.42 21.38L154.01 22.04Q153.35 23.59 152.25 24.55Q151.15 25.51 149.68 26Q148.20 26.49 146.42 26.49ZM148.52 22.36L148.52 22.36Q149.57 22.36 150.43 21.99Q151.28 21.63 151.90 21.01Q152.51 20.40 152.81 19.63Q153.10 18.86 153.10 18.02L153.10 18.02L153.10 15.74L154.05 16.90Q153.63 17.32 153.02 17.53Q152.41 17.74 151.18 17.98L151.18 17.98L148.24 18.51Q147.19 18.75 146.65 19.24Q146.10 19.73 146.10 20.47L146.10 20.47Q146.10 21.38 146.77 21.87Q147.44 22.36 148.52 22.36ZM171.06 26.49L171.06 26.49Q168.72 26.49 167.02 26.05Q165.32 25.61 164.15 24.83Q162.97 24.04 162.36 23.01Q161.75 21.98 161.64 20.71L161.64 20.71L167.66 20.71Q167.81 21.34 168.22 21.73Q168.64 22.11 169.40 22.31Q170.15 22.50 171.16 22.50L171.16 22.50Q172.18 22.50 172.86 22.31Q173.54 22.11 173.91 21.73Q174.28 21.34 174.28 20.82L174.28 20.82Q174.28 20.29 173.89 19.96Q173.51 19.63 172.74 19.45L172.74 19.45L168.16 18.61Q165.14 18.13 163.66 16.81Q162.17 15.50 162.17 13.36L162.17 13.36Q162.17 12.03 162.76 10.95Q163.36 9.86 164.50 9.11Q165.63 8.36 167.25 7.94Q168.85 7.52 170.81 7.52L170.81 7.52Q173.61 7.52 175.54 8.17Q177.47 8.81 178.51 10.02Q179.56 11.23 179.74 12.91L179.74 12.91L173.75 12.91Q173.69 12.45 173.32 12.16Q172.95 11.86 172.32 11.67Q171.69 11.47 170.75 11.47L170.75 11.47Q169.91 11.47 169.29 11.67Q168.68 11.86 168.35 12.21Q168.01 12.56 168.01 13.01L168.01 13.01Q168.01 13.61 168.49 13.94Q168.96 14.27 169.69 14.45L169.69 14.45L174.70 15.29Q176.13 15.50 177.39 16.08Q178.66 16.66 179.44 17.74Q180.23 18.82 180.23 20.50L180.23 20.50Q180.23 22.01 179.58 23.13Q178.94 24.25 177.71 25.00Q176.48 25.75 174.79 26.12Q173.09 26.49 171.06 26.49ZM196.16 26L190.98 26Q188.28 26 186.71 24.51Q185.13 23.02 185.13 20.43L185.13 20.43L185.13 3.14L191.12 3.14L191.12 19.14Q191.12 20.36 191.76 21.06Q192.41 21.77 193.64 21.77L193.64 21.77L196.16 21.77L196.16 26ZM185.69 12.24L181.49 12.24L181.49 8.01L185.69 8.01L185.69 12.24ZM196.16 12.24L190.56 12.24L190.56 8.01L196.16 8.01L196.16 12.24Z"/></g>
        
      </svg>
    